<svg xmlns="http://www.w3.org/2000/svg" viewBox="0 0 24 30" shape-rendering="crispEdges">
    <rect x="8" y="0" width="8" height="1" fill="#1a1208"/>
    <rect x="7" y="1" width="1" height="1" fill="#1a1208"/>
    <rect x="8" y="1" width="2" height="1" fill="#f6f0e0"/>
    <rect x="10" y="1" width="1" height="1" fill="#ddd4bd"/>
    <rect x="11" y="1" width="2" height="1" fill="#f6f0e0"/>
    <rect x="13" y="1" width="1" height="1" fill="#ddd4bd"/>
    <rect x="14" y="1" width="2" height="1" fill="#f6f0e0"/>
    <rect x="16" y="1" width="1" height="1" fill="#1a1208"/>
    <rect x="6" y="2" width="1" height="1" fill="#1a1208"/>
    <rect x="7" y="2" width="3" height="1" fill="#f6f0e0"/>
    <rect x="10" y="2" width="1" height="1" fill="#ddd4bd"/>
    <rect x="11" y="2" width="2" height="1" fill="#f6f0e0"/>
    <rect x="13" y="2" width="1" height="1" fill="#ddd4bd"/>
    <rect x="14" y="2" width="3" height="1" fill="#f6f0e0"/>
    <rect x="17" y="2" width="1" height="1" fill="#1a1208"/>
    <rect x="5" y="3" width="1" height="1" fill="#1a1208"/>
    <rect x="6" y="3" width="4" height="1" fill="#f6f0e0"/>
    <rect x="10" y="3" width="1" height="1" fill="#ddd4bd"/>
    <rect x="11" y="3" width="2" height="1" fill="#f6f0e0"/>
    <rect x="13" y="3" width="1" height="1" fill="#ddd4bd"/>
    <rect x="14" y="3" width="4" height="1" fill="#f6f0e0"/>
    <rect x="18" y="3" width="1" height="1" fill="#1a1208"/>
    <rect x="5" y="4" width="1" height="1" fill="#1a1208"/>
    <rect x="6" y="4" width="4" height="1" fill="#f6f0e0"/>
    <rect x="10" y="4" width="1" height="1" fill="#ddd4bd"/>
    <rect x="11" y="4" width="2" height="1" fill="#f6f0e0"/>
    <rect x="13" y="4" width="1" height="1" fill="#ddd4bd"/>
    <rect x="14" y="4" width="4" height="1" fill="#f6f0e0"/>
    <rect x="18" y="4" width="1" height="1" fill="#1a1208"/>
    <rect x="5" y="5" width="1" height="1" fill="#1a1208"/>
    <rect x="6" y="5" width="12" height="1" fill="#ddd4bd"/>
    <rect x="18" y="5" width="1" height="1" fill="#1a1208"/>
    <rect x="5" y="6" width="1" height="1" fill="#1a1208"/>
    <rect x="6" y="6" width="12" height="1" fill="#221a13"/>
    <rect x="18" y="6" width="1" height="1" fill="#1a1208"/>
    <rect x="5" y="7" width="1" height="1" fill="#1a1208"/>
    <rect x="6" y="7" width="1" height="1" fill="#221a13"/>
    <rect x="7" y="7" width="10" height="1" fill="#ecb98c"/>
    <rect x="17" y="7" width="1" height="1" fill="#221a13"/>
    <rect x="18" y="7" width="1" height="1" fill="#1a1208"/>
    <rect x="5" y="8" width="1" height="1" fill="#1a1208"/>
    <rect x="6" y="8" width="2" height="1" fill="#ecb98c"/>
    <rect x="8" y="8" width="2" height="1" fill="#221a13"/>
    <rect x="10" y="8" width="4" height="1" fill="#ecb98c"/>
    <rect x="14" y="8" width="2" height="1" fill="#221a13"/>
    <rect x="16" y="8" width="2" height="1" fill="#ecb98c"/>
    <rect x="18" y="8" width="1" height="1" fill="#1a1208"/>
    <rect x="3" y="9" width="1" height="1" fill="#1a1208"/>
    <rect x="4" y="9" width="1" height="1" fill="#ecb98c"/>
    <rect x="5" y="9" width="1" height="1" fill="#1a1208"/>
    <rect x="6" y="9" width="2" height="1" fill="#ecb98c"/>
    <rect x="8" y="9" width="2" height="1" fill="#26201a"/>
    <rect x="10" y="9" width="4" height="1" fill="#ecb98c"/>
    <rect x="14" y="9" width="2" height="1" fill="#26201a"/>
    <rect x="16" y="9" width="2" height="1" fill="#ecb98c"/>
    <rect x="18" y="9" width="1" height="1" fill="#1a1208"/>
    <rect x="19" y="9" width="1" height="1" fill="#ecb98c"/>
    <rect x="20" y="9" width="1" height="1" fill="#1a1208"/>
    <rect x="3" y="10" width="1" height="1" fill="#1a1208"/>
    <rect x="4" y="10" width="1" height="1" fill="#ecb98c"/>
    <rect x="5" y="10" width="1" height="1" fill="#1a1208"/>
    <rect x="6" y="10" width="5" height="1" fill="#ecb98c"/>
    <rect x="11" y="10" width="2" height="1" fill="#d9a26e"/>
    <rect x="13" y="10" width="5" height="1" fill="#ecb98c"/>
    <rect x="18" y="10" width="1" height="1" fill="#1a1208"/>
    <rect x="19" y="10" width="1" height="1" fill="#ecb98c"/>
    <rect x="20" y="10" width="1" height="1" fill="#1a1208"/>
    <rect x="5" y="11" width="1" height="1" fill="#1a1208"/>
    <rect x="6" y="11" width="1" height="1" fill="#ecb98c"/>
    <rect x="7" y="11" width="1" height="1" fill="#e8927a"/>
    <rect x="8" y="11" width="8" height="1" fill="#ecb98c"/>
    <rect x="16" y="11" width="1" height="1" fill="#e8927a"/>
    <rect x="17" y="11" width="1" height="1" fill="#ecb98c"/>
    <rect x="18" y="11" width="1" height="1" fill="#1a1208"/>
    <rect x="5" y="12" width="1" height="1" fill="#1a1208"/>
    <rect x="6" y="12" width="4" height="1" fill="#ecb98c"/>
    <rect x="10" y="12" width="4" height="1" fill="#b56b48"/>
    <rect x="14" y="12" width="4" height="1" fill="#ecb98c"/>
    <rect x="18" y="12" width="1" height="1" fill="#1a1208"/>
    <rect x="6" y="13" width="1" height="1" fill="#1a1208"/>
    <rect x="7" y="13" width="10" height="1" fill="#ecb98c"/>
    <rect x="17" y="13" width="1" height="1" fill="#1a1208"/>
    <rect x="7" y="14" width="2" height="1" fill="#1a1208"/>
    <rect x="9" y="14" width="6" height="1" fill="#ecb98c"/>
    <rect x="15" y="14" width="2" height="1" fill="#1a1208"/>
    <rect x="9" y="15" width="1" height="1" fill="#1a1208"/>
    <rect x="10" y="15" width="4" height="1" fill="#d9a26e"/>
    <rect x="14" y="15" width="1" height="1" fill="#1a1208"/>
    <rect x="3" y="16" width="2" height="1" fill="#1a1208"/>
    <rect x="5" y="16" width="4" height="1" fill="#efe7d6"/>
    <rect x="9" y="16" width="1" height="1" fill="#2e3d58"/>
    <rect x="10" y="16" width="4" height="1" fill="#ecb98c"/>
    <rect x="14" y="16" width="1" height="1" fill="#2e3d58"/>
    <rect x="15" y="16" width="4" height="1" fill="#efe7d6"/>
    <rect x="19" y="16" width="2" height="1" fill="#1a1208"/>
    <rect x="2" y="17" width="1" height="1" fill="#1a1208"/>
    <rect x="3" y="17" width="7" height="1" fill="#efe7d6"/>
    <rect x="10" y="17" width="1" height="1" fill="#2e3d58"/>
    <rect x="11" y="17" width="2" height="1" fill="#ecb98c"/>
    <rect x="13" y="17" width="1" height="1" fill="#2e3d58"/>
    <rect x="14" y="17" width="7" height="1" fill="#efe7d6"/>
    <rect x="21" y="17" width="1" height="1" fill="#1a1208"/>
    <rect x="2" y="18" width="1" height="1" fill="#1a1208"/>
    <rect x="3" y="18" width="8" height="1" fill="#efe7d6"/>
    <rect x="11" y="18" width="2" height="1" fill="#2e3d58"/>
    <rect x="13" y="18" width="8" height="1" fill="#efe7d6"/>
    <rect x="21" y="18" width="1" height="1" fill="#1a1208"/>
    <rect x="2" y="19" width="1" height="1" fill="#1a1208"/>
    <rect x="3" y="19" width="8" height="1" fill="#efe7d6"/>
    <rect x="11" y="19" width="2" height="1" fill="#d8cfb8"/>
    <rect x="13" y="19" width="8" height="1" fill="#efe7d6"/>
    <rect x="21" y="19" width="1" height="1" fill="#1a1208"/>
    <rect x="2" y="20" width="1" height="1" fill="#1a1208"/>
    <rect x="3" y="20" width="4" height="1" fill="#efe7d6"/>
    <rect x="7" y="20" width="1" height="1" fill="#d8cfb8"/>
    <rect x="8" y="20" width="8" height="1" fill="#efe7d6"/>
    <rect x="16" y="20" width="1" height="1" fill="#d8cfb8"/>
    <rect x="17" y="20" width="4" height="1" fill="#efe7d6"/>
    <rect x="21" y="20" width="1" height="1" fill="#1a1208"/>
    <rect x="2" y="21" width="1" height="1" fill="#1a1208"/>
    <rect x="3" y="21" width="18" height="1" fill="#efe7d6"/>
    <rect x="21" y="21" width="1" height="1" fill="#1a1208"/>
    <rect x="2" y="22" width="1" height="1" fill="#1a1208"/>
    <rect x="3" y="22" width="18" height="1" fill="#d8cfb8"/>
    <rect x="21" y="22" width="1" height="1" fill="#1a1208"/>
    <rect x="2" y="23" width="1" height="1" fill="#1a1208"/>
    <rect x="3" y="23" width="18" height="1" fill="#efe7d6"/>
    <rect x="21" y="23" width="1" height="1" fill="#1a1208"/>
    <rect x="2" y="24" width="1" height="1" fill="#1a1208"/>
    <rect x="3" y="24" width="4" height="1" fill="#efe7d6"/>
    <rect x="7" y="24" width="1" height="1" fill="#1a1208"/>
    <rect x="8" y="24" width="2" height="1" fill="#ecb98c"/>
    <rect x="10" y="24" width="1" height="1" fill="#1a1208"/>
    <rect x="11" y="24" width="2" height="1" fill="#efe7d6"/>
    <rect x="13" y="24" width="1" height="1" fill="#1a1208"/>
    <rect x="14" y="24" width="2" height="1" fill="#ecb98c"/>
    <rect x="16" y="24" width="1" height="1" fill="#1a1208"/>
    <rect x="17" y="24" width="4" height="1" fill="#efe7d6"/>
    <rect x="21" y="24" width="1" height="1" fill="#1a1208"/>
    <rect x="2" y="25" width="1" height="1" fill="#1a1208"/>
    <rect x="3" y="25" width="5" height="1" fill="#efe7d6"/>
    <rect x="8" y="25" width="3" height="1" fill="#1a1208"/>
    <rect x="11" y="25" width="2" height="1" fill="#efe7d6"/>
    <rect x="13" y="25" width="3" height="1" fill="#1a1208"/>
    <rect x="16" y="25" width="5" height="1" fill="#efe7d6"/>
    <rect x="21" y="25" width="1" height="1" fill="#1a1208"/>
    <rect x="2" y="26" width="1" height="1" fill="#1a1208"/>
    <rect x="3" y="26" width="18" height="1" fill="#efe7d6"/>
    <rect x="21" y="26" width="1" height="1" fill="#1a1208"/>
    <rect x="2" y="27" width="1" height="1" fill="#1a1208"/>
    <rect x="3" y="27" width="18" height="1" fill="#efe7d6"/>
    <rect x="21" y="27" width="1" height="1" fill="#1a1208"/>
    <rect x="2" y="28" width="1" height="1" fill="#1a1208"/>
    <rect x="3" y="28" width="1" height="1" fill="#d8cfb8"/>
    <rect x="4" y="28" width="16" height="1" fill="#efe7d6"/>
    <rect x="20" y="28" width="1" height="1" fill="#d8cfb8"/>
    <rect x="21" y="28" width="1" height="1" fill="#1a1208"/>
    <rect x="2" y="29" width="20" height="1" fill="#1a1208"/>
</svg>
