<svg xmlns="http://www.w3.org/2000/svg" viewBox="0 0 16 16" shape-rendering="crispEdges">
    <rect x="5" y="2" width="6" height="1" fill="#2c5c1e"/>
    <rect x="3" y="3" width="2" height="1" fill="#2c5c1e"/>
    <rect x="11" y="3" width="2" height="1" fill="#2c5c1e"/>
    <rect x="2" y="4" width="1" height="8" fill="#2c5c1e"/>
    <rect x="13" y="4" width="1" height="8" fill="#2c5c1e"/>
    <rect x="3" y="12" width="2" height="1" fill="#2c5c1e"/>
    <rect x="11" y="12" width="2" height="1" fill="#2c5c1e"/>
    <rect x="5" y="13" width="6" height="1" fill="#2c5c1e"/>
    <rect x="5" y="3" width="6" height="1" fill="#4d9636"/>
    <rect x="3" y="4" width="10" height="8" fill="#4d9636"/>
    <rect x="5" y="12" width="6" height="1" fill="#4d9636"/>
    <rect x="5" y="4" width="6" height="1" fill="#cae8a8"/>
    <rect x="4" y="5" width="8" height="6" fill="#cae8a8"/>
    <rect x="5" y="11" width="6" height="1" fill="#cae8a8"/>
    <rect x="7" y="7" width="2" height="2" fill="#e8f4d4"/>
    <rect x="6" y="5" width="1" height="1" fill="#8cb868"/>
    <rect x="9" y="6" width="1" height="1" fill="#8cb868"/>
    <rect x="5" y="8" width="1" height="1" fill="#8cb868"/>
    <rect x="10" y="9" width="1" height="1" fill="#8cb868"/>
    <rect x="7" y="10" width="1" height="1" fill="#8cb868"/>
</svg>
