<svg xmlns="http://www.w3.org/2000/svg" viewBox="0 0 16 16" shape-rendering="crispEdges">
    <rect x="6" y="2" width="4" height="1" fill="#c9b8a4"/>
    <rect x="4" y="3" width="2" height="1" fill="#c9b8a4"/>
    <rect x="10" y="3" width="2" height="1" fill="#c9b8a4"/>
    <rect x="3" y="4" width="1" height="2" fill="#c9b8a4"/>
    <rect x="12" y="4" width="1" height="2" fill="#c9b8a4"/>
    <rect x="2" y="6" width="1" height="4" fill="#c9b8a4"/>
    <rect x="13" y="6" width="1" height="4" fill="#c9b8a4"/>
    <rect x="3" y="10" width="1" height="2" fill="#c9b8a4"/>
    <rect x="12" y="10" width="1" height="2" fill="#c9b8a4"/>
    <rect x="4" y="12" width="2" height="1" fill="#c9b8a4"/>
    <rect x="10" y="12" width="2" height="1" fill="#c9b8a4"/>
    <rect x="6" y="13" width="4" height="1" fill="#c9b8a4"/>
    <rect x="6" y="3" width="4" height="1" fill="#faf6ee"/>
    <rect x="4" y="4" width="8" height="2" fill="#faf6ee"/>
    <rect x="3" y="6" width="10" height="4" fill="#faf6ee"/>
    <rect x="4" y="10" width="8" height="2" fill="#faf6ee"/>
    <rect x="6" y="12" width="4" height="1" fill="#faf6ee"/>
    <rect x="7" y="6" width="3" height="3" fill="#ec8aa4"/>
    <rect x="8" y="7" width="1" height="1" fill="#faf6ee"/>
    <rect x="9" y="4" width="1" height="2" fill="#ec8aa4"/>
    <rect x="10" y="5" width="1" height="1" fill="#ec8aa4"/>
    <rect x="6" y="9" width="1" height="2" fill="#ec8aa4"/>
    <rect x="5" y="10" width="1" height="1" fill="#ec8aa4"/>
</svg>
