<svg xmlns="http://www.w3.org/2000/svg" viewBox="0 0 16 16" shape-rendering="crispEdges">
    <rect x="7" y="2" width="2" height="1" fill="#b8ae96"/>
    <rect x="6" y="3" width="1" height="1" fill="#b8ae96"/>
    <rect x="9" y="3" width="1" height="1" fill="#b8ae96"/>
    <rect x="5" y="4" width="1" height="2" fill="#b8ae96"/>
    <rect x="10" y="4" width="1" height="2" fill="#b8ae96"/>
    <rect x="4" y="6" width="1" height="2" fill="#b8ae96"/>
    <rect x="11" y="6" width="1" height="2" fill="#b8ae96"/>
    <rect x="3" y="8" width="1" height="2" fill="#b8ae96"/>
    <rect x="12" y="8" width="1" height="2" fill="#b8ae96"/>
    <rect x="2" y="10" width="1" height="2" fill="#b8ae96"/>
    <rect x="13" y="10" width="1" height="2" fill="#b8ae96"/>
    <rect x="2" y="12" width="12" height="1" fill="#b8ae96"/>
    <rect x="7" y="3" width="2" height="1" fill="#f8f4ea"/>
    <rect x="6" y="4" width="4" height="2" fill="#f8f4ea"/>
    <rect x="5" y="6" width="6" height="2" fill="#f8f4ea"/>
    <rect x="4" y="8" width="8" height="2" fill="#f8f4ea"/>
    <rect x="3" y="10" width="10" height="2" fill="#f8f4ea"/>
    <rect x="6" y="8" width="4" height="4" fill="#2e3b22"/>
    <rect x="6" y="8" width="4" height="1" fill="#46552f"/>
</svg>
