<svg xmlns="http://www.w3.org/2000/svg" viewBox="0 0 16 16" shape-rendering="crispEdges">
    <rect x="10" y="1" width="3" height="1" fill="#a33c20"/>
    <rect x="9" y="2" width="2" height="1" fill="#e85c3a"/>
    <rect x="12" y="2" width="2" height="1" fill="#e85c3a"/>
    <rect x="10" y="3" width="3" height="1" fill="#e85c3a"/>
    <rect x="13" y="3" width="1" height="1" fill="#f4826a"/>
    <rect x="9" y="3" width="1" height="1" fill="#a33c20"/>
    <rect x="8" y="4" width="2" height="1" fill="#5a3414"/>
    <rect x="10" y="4" width="3" height="2" fill="#e09a3e"/>
    <rect x="7" y="5" width="3" height="2" fill="#e09a3e"/>
    <rect x="6" y="5" width="1" height="1" fill="#5a3414"/>
    <rect x="5" y="6" width="4" height="2" fill="#e09a3e"/>
    <rect x="4" y="7" width="1" height="1" fill="#5a3414"/>
    <rect x="4" y="8" width="4" height="2" fill="#e09a3e"/>
    <rect x="3" y="9" width="1" height="1" fill="#5a3414"/>
    <rect x="2" y="10" width="5" height="2" fill="#e09a3e"/>
    <rect x="2" y="12" width="4" height="1" fill="#c47d28"/>
    <rect x="2" y="13" width="3" height="1" fill="#5a3414"/>
    <rect x="11" y="4" width="1" height="1" fill="#f3c878"/>
    <rect x="8" y="6" width="1" height="1" fill="#f3c878"/>
    <rect x="6" y="8" width="1" height="1" fill="#f3c878"/>
    <rect x="4" y="10" width="1" height="1" fill="#f3c878"/>
    <rect x="9" y="5" width="1" height="1" fill="#b97524"/>
    <rect x="7" y="7" width="1" height="1" fill="#b97524"/>
    <rect x="5" y="9" width="1" height="1" fill="#b97524"/>
    <rect x="3" y="11" width="1" height="1" fill="#b97524"/>
</svg>
